<svg xmlns="http://www.w3.org/2000/svg" width="900" height="236" viewBox="0 0 900 236" role="img">
  
  <defs>
    <linearGradient id="bg" x1="0" y1="0" x2="1" y2="1">
      <stop offset="0%" stop-color="#FFFFFF"/>
      <stop offset="55%" stop-color="#F1F5F9"/>
      <stop offset="100%" stop-color="#E2E8F0"/>
    </linearGradient>
    <linearGradient id="accentGrad" x1="0" y1="0" x2="1" y2="0">
      <stop offset="0%" stop-color="#0891B2"/>
      <stop offset="55%" stop-color="#6D28D9"/>
      <stop offset="100%" stop-color="#DB2777"/>
    </linearGradient>
    <pattern id="grid" width="26" height="26" patternUnits="userSpaceOnUse">
      <path d="M26 0H0V26" fill="none" stroke="#0E7490" stroke-width="1" stroke-opacity="0.14"/>
    </pattern>
    <filter id="soft" x="-60%" y="-60%" width="220%" height="220%">
      <feGaussianBlur stdDeviation="28"/>
    </filter>
    <filter id="glow" x="-60%" y="-60%" width="220%" height="220%">
      <feGaussianBlur stdDeviation="3" result="b"/>
      <feMerge><feMergeNode in="b"/><feMergeNode in="SourceGraphic"/></feMerge>
    </filter>
    
    <linearGradient id="barGrad" x1="0" y1="1" x2="0" y2="0">
      <stop offset="0%" stop-color="#6D28D9"/>
      <stop offset="100%" stop-color="#0891B2"/>
    </linearGradient>
    <linearGradient id="scan" x1="0" y1="0" x2="1" y2="0">
      <stop offset="0%" stop-color="#0891B2" stop-opacity="0"/>
      <stop offset="50%" stop-color="#0891B2" stop-opacity="0.22"/>
      <stop offset="100%" stop-color="#0891B2" stop-opacity="0"/>
    </linearGradient>
    <clipPath id="clipPanel"><rect width="900" height="236" rx="18"/></clipPath>
  </defs>
  
  <rect width="900" height="236" rx="18" fill="url(#bg)"/>
  <g clip-path="url(#clipPanel)">
    <g>
      <rect x="-26" y="-26" width="952" height="288" fill="url(#grid)"/>
      <animateTransform attributeName="transform" type="translate"
        values="0 0; 26 26; 0 0" dur="14s" repeatCount="indefinite"/>
    </g>
    <g filter="url(#soft)" opacity="0.18">
      <circle cx="108" cy="47.2" r="80.24000000000001" fill="#0891B2">
        <animate attributeName="cy" values="47.2;146.32;47.2" dur="11s" repeatCount="indefinite"/>
      </circle>
      <circle cx="738" cy="177" r="70.8" fill="#6D28D9">
        <animate attributeName="cx" values="738;558;738" dur="13s" repeatCount="indefinite"/>
      </circle>
      <circle cx="495.00000000000006" cy="23.6" r="51.92" fill="#DB2777" opacity="0.7">
        <animate attributeName="r" values="51.92;75.52;51.92" dur="9s" repeatCount="indefinite"/>
      </circle>
    </g>
  </g>
  <rect x="0.5" y="0.5" width="899" height="235" rx="18" fill="none" stroke="#CBD5E1"/>
  <rect x="0.5" y="0.5" width="899" height="235" rx="18" fill="none" stroke="url(#accentGrad)" stroke-opacity="0.45"/>
  
  <g transform="translate(20,22)">
    <circle cx="0"  cy="0" r="4.5" fill="#DB2777" opacity="0.85"/>
    <circle cx="15" cy="0" r="4.5" fill="#0891B2"  opacity="0.55"/>
    <circle cx="30" cy="0" r="4.5" fill="#6D28D9" opacity="0.55"/>
    <text x="46" y="4" font-family="ui-monospace,'SF Mono',SFMono-Regular,Menlo,Consolas,'Liberation Mono',monospace" font-size="11.5" fill="#94A3B8" letter-spacing="1.4">commits --weekly --all-repos --last-52w</text>
  </g>
  <line x1="20" y1="40" x2="880" y2="40" stroke="#CBD5E1"/>

  <line x1="26" y1="146.7" x2="874" y2="146.7"
    stroke="#DB2777" stroke-opacity="0.55" stroke-dasharray="3 4"/>
  <text x="29" y="140.7" font-family="ui-monospace,'SF Mono',SFMono-Regular,Menlo,Consolas,'Liberation Mono',monospace"
    font-size="9.5" fill="#DB2777" opacity="0.85">avg 147</text>

  <rect x="28.8" y="176.0" width="10.8"
      height="2.0" rx="3.0" fill="url(#barGrad)"
      opacity="0.51"></rect><rect x="45.1" y="175.0" width="10.8"
      height="3.0" rx="3.0" fill="url(#barGrad)"
      opacity="0.51"></rect><rect x="61.4" y="176.0" width="10.8"
      height="2.0" rx="3.0" fill="url(#barGrad)"
      opacity="0.50"></rect><rect x="77.7" y="176.0" width="10.8"
      height="2.0" rx="3.0" fill="url(#barGrad)"
      opacity="0.50"></rect><rect x="94.0" y="176.0" width="10.8"
      height="2.0" rx="3.0" fill="url(#barGrad)"
      opacity="0.50"></rect><rect x="110.3" y="176.0" width="10.8"
      height="2.0" rx="3.0" fill="url(#barGrad)"
      opacity="0.50"></rect><rect x="126.6" y="176.0" width="10.8"
      height="2.0" rx="3.0" fill="url(#barGrad)"
      opacity="0.50"></rect><rect x="142.9" y="176.0" width="10.8"
      height="2.0" rx="3.0" fill="url(#barGrad)"
      opacity="0.50"></rect><rect x="159.2" y="175.2" width="10.8"
      height="2.8" rx="3.0" fill="url(#barGrad)"
      opacity="0.51"></rect><rect x="175.5" y="166.9" width="10.8"
      height="11.1" rx="3.0" fill="url(#barGrad)"
      opacity="0.55"></rect><rect x="191.8" y="173.5" width="10.8"
      height="4.5" rx="3.0" fill="url(#barGrad)"
      opacity="0.52"></rect><rect x="208.2" y="172.0" width="10.8"
      height="6.0" rx="3.0" fill="url(#barGrad)"
      opacity="0.53"></rect><rect x="224.5" y="172.5" width="10.8"
      height="5.5" rx="3.0" fill="url(#barGrad)"
      opacity="0.52"></rect><rect x="240.8" y="171.6" width="10.8"
      height="6.4" rx="3.0" fill="url(#barGrad)"
      opacity="0.53"></rect><rect x="257.1" y="151.3" width="10.8"
      height="26.7" rx="3.0" fill="url(#barGrad)"
      opacity="0.61"></rect><rect x="273.4" y="153.3" width="10.8"
      height="24.7" rx="3.0" fill="url(#barGrad)"
      opacity="0.61"></rect><rect x="289.7" y="163.9" width="10.8"
      height="14.1" rx="3.0" fill="url(#barGrad)"
      opacity="0.56"></rect><rect x="306.0" y="171.2" width="10.8"
      height="6.8" rx="3.0" fill="url(#barGrad)"
      opacity="0.53"></rect><rect x="322.3" y="170.3" width="10.8"
      height="7.7" rx="3.0" fill="url(#barGrad)"
      opacity="0.53"></rect><rect x="338.6" y="165.8" width="10.8"
      height="12.2" rx="3.0" fill="url(#barGrad)"
      opacity="0.55"></rect><rect x="354.9" y="156.3" width="10.8"
      height="21.8" rx="3.0" fill="url(#barGrad)"
      opacity="0.59"></rect><rect x="371.2" y="158.0" width="10.8"
      height="20.0" rx="3.0" fill="url(#barGrad)"
      opacity="0.59"></rect><rect x="387.5" y="155.8" width="10.8"
      height="22.2" rx="3.0" fill="url(#barGrad)"
      opacity="0.60"></rect><rect x="403.8" y="159.2" width="10.8"
      height="18.8" rx="3.0" fill="url(#barGrad)"
      opacity="0.58"></rect><rect x="420.2" y="150.3" width="10.8"
      height="27.7" rx="3.0" fill="url(#barGrad)"
      opacity="0.62"></rect><rect x="436.5" y="163.1" width="10.8"
      height="14.9" rx="3.0" fill="url(#barGrad)"
      opacity="0.56"></rect><rect x="452.8" y="157.7" width="10.8"
      height="20.3" rx="3.0" fill="url(#barGrad)"
      opacity="0.59"></rect><rect x="469.1" y="158.0" width="10.8"
      height="20.0" rx="3.0" fill="url(#barGrad)"
      opacity="0.59"></rect><rect x="485.4" y="155.4" width="10.8"
      height="22.6" rx="3.0" fill="url(#barGrad)"
      opacity="0.60"></rect><rect x="501.7" y="152.6" width="10.8"
      height="25.4" rx="3.0" fill="url(#barGrad)"
      opacity="0.61"></rect><rect x="518.0" y="150.5" width="10.8"
      height="27.5" rx="3.0" fill="url(#barGrad)"
      opacity="0.62"></rect><rect x="534.3" y="137.7" width="10.8"
      height="40.3" rx="3.0" fill="url(#barGrad)"
      opacity="0.67"></rect><rect x="550.6" y="133.6" width="10.8"
      height="44.4" rx="3.0" fill="url(#barGrad)"
      opacity="0.69"></rect><rect x="566.9" y="138.3" width="10.8"
      height="39.7" rx="3.0" fill="url(#barGrad)"
      opacity="0.67"></rect><rect x="583.2" y="153.7" width="10.8"
      height="24.3" rx="3.0" fill="url(#barGrad)"
      opacity="0.60"></rect><rect x="599.5" y="161.6" width="10.8"
      height="16.4" rx="3.0" fill="url(#barGrad)"
      opacity="0.57"></rect><rect x="615.8" y="133.4" width="10.8"
      height="44.6" rx="3.0" fill="url(#barGrad)"
      opacity="0.69"></rect><rect x="632.2" y="146.4" width="10.8"
      height="31.6" rx="3.0" fill="url(#barGrad)"
      opacity="0.64"></rect><rect x="648.5" y="135.8" width="10.8"
      height="42.2" rx="3.0" fill="url(#barGrad)"
      opacity="0.68"></rect><rect x="664.8" y="124.9" width="10.8"
      height="53.1" rx="3.0" fill="url(#barGrad)"
      opacity="0.73"></rect><rect x="681.1" y="73.5" width="10.8"
      height="104.5" rx="3.0" fill="url(#barGrad)"
      opacity="0.95"></rect><rect x="697.4" y="84.4" width="10.8"
      height="93.6" rx="3.0" fill="url(#barGrad)"
      opacity="0.90"></rect><rect x="713.7" y="114.7" width="10.8"
      height="63.3" rx="3.0" fill="url(#barGrad)"
      opacity="0.77"></rect><rect x="730.0" y="92.7" width="10.8"
      height="85.3" rx="3.0" fill="url(#barGrad)"
      opacity="0.87"></rect><rect x="746.3" y="104.0" width="10.8"
      height="74.0" rx="3.0" fill="url(#barGrad)"
      opacity="0.82"></rect><rect x="762.6" y="62.0" width="10.8"
      height="116.0" rx="3.0" fill="url(#barGrad)"
      opacity="1.00"><animate attributeName="opacity" values="1;0.5;1" dur="2.4s" repeatCount="indefinite"/></rect><rect x="778.9" y="102.5" width="10.8"
      height="75.5" rx="3.0" fill="url(#barGrad)"
      opacity="0.83"></rect><rect x="795.2" y="95.7" width="10.8"
      height="82.3" rx="3.0" fill="url(#barGrad)"
      opacity="0.85"></rect><rect x="811.5" y="94.2" width="10.8"
      height="83.8" rx="3.0" fill="url(#barGrad)"
      opacity="0.86"></rect><rect x="827.8" y="126.4" width="10.8"
      height="51.6" rx="3.0" fill="url(#barGrad)"
      opacity="0.72"></rect><rect x="844.2" y="137.7" width="10.8"
      height="40.3" rx="3.0" fill="url(#barGrad)"
      opacity="0.67"></rect><rect x="860.5" y="132.6" width="10.8"
      height="45.4" rx="3.0" fill="url(#barGrad)"
      opacity="0.70"></rect>
  <line x1="26" y1="178.5" x2="874" y2="178.5" stroke="#CBD5E1"/>
  <g clip-path="url(#clipPanel)">
    <rect y="56" width="80" height="128" fill="url(#scan)">
      <animate attributeName="x" values="-90;900;-90" dur="7s" repeatCount="indefinite"/>
    </rect>
  </g>

  <g font-family="ui-monospace,'SF Mono',SFMono-Regular,Menlo,Consolas,'Liberation Mono',monospace" font-size="10.5">
    
    <text x="26" y="206" fill="#94A3B8">
      commits <tspan fill="#0F172A" font-size="13" font-weight="700">7,626</tspan>
    </text>
    <text x="194" y="206" fill="#94A3B8">
      peak week <tspan fill="#0F172A" font-size="13" font-weight="700">544</tspan>
    </text>
    <text x="362" y="206" fill="#94A3B8">
      weekly avg <tspan fill="#0F172A" font-size="13" font-weight="700">147</tspan>
    </text>
    <text x="530" y="206" fill="#94A3B8">
      active weeks <tspan fill="#0F172A" font-size="13" font-weight="700">47/52</tspan>
    </text>
  </g>
  <text x="26" y="224" font-family="ui-monospace,'SF Mono',SFMono-Regular,Menlo,Consolas,'Liberation Mono',monospace" font-size="10" fill="#94A3B8">
    Aug 2025 &#8594; Aug 2026 &#183; every repo this token can read, private included
  </text></svg>
